<svg width="92" height="78" viewBox="0 0 92 78" fill="none" xmlns="http://www.w3.org/2000/svg">
<path d="M19 44C19 53.9411 27.0589 62 37 62L64 62C66.7614 62 69 59.7614 69 57L69 23C69 17.4771 64.5228 13 59 13L24 13C21.2386 13 19 15.2386 19 18L19 44Z" fill="#FFF1DA"/>
<path d="M53.0222 44.1793C52.2734 44.334 51.544 44.6207 50.8793 45.0212C49.1478 46.0393 48.1404 47.4925 48.6293 48.2668C49.1183 49.0412 50.9184 48.8431 52.6499 47.8251C53.3235 47.4387 53.9219 46.9448 54.4083 46.3741C54.634 46.0983 54.6745 45.7547 54.5117 45.4978L53.8765 44.4919C53.7149 44.2343 53.3796 44.1117 53.0222 44.1793Z" fill="#D5D6DB"/>
<path d="M48.674 30.4478C48.131 30.5601 47.602 30.7681 47.1201 31.0586C45.8648 31.7966 45.1339 32.8503 45.4882 33.4113C45.8424 33.9723 47.1482 33.8286 48.4033 33.0906C48.8917 32.8103 49.3256 32.452 49.6783 32.0381C49.8418 31.8383 49.871 31.5893 49.7531 31.4031L49.2931 30.6747C49.1761 30.488 48.9332 30.3989 48.674 30.4478Z" fill="#D5D6DB"/>
<path d="M41.6094 31.0229C41.4885 31.0104 41.3596 31.0402 41.2478 31.106L38.2993 32.8398C38.0527 32.9844 37.954 33.2628 38.0791 33.4618C38.1077 33.5074 38.1469 33.5464 38.1944 33.5764L45.4616 38.1979L55.2934 32.4167L41.6094 31.0229Z" fill="#029BC5"/>
<path d="M72.6906 30.3694L45.9344 45.9113L30.1047 51.7234L22.0318 53.2041L21.1436 51.8116L65.7422 26.4038C67.0713 25.6433 68.5519 25.1766 70.0343 25.0509C70.6835 24.999 71.3245 25.0189 71.9427 25.1099C72.4907 25.1866 73.0105 25.3345 73.4866 25.5492C74.0181 25.7925 75.0295 25.8205 75.3571 26.3052C75.3582 26.3044 76.1312 28.5297 72.6906 30.3694V30.3694Z" fill="#E1E6E9"/>
<path d="M46.2891 43.8549L34.7141 60.8811C34.5696 61.1202 34.6554 61.3881 34.9056 61.4792C35.0592 61.5352 35.2471 61.5131 35.405 61.4205L38.3513 59.6959C38.9179 59.3641 39.4197 58.9426 39.8255 58.4575L62.273 34.1065L46.2891 43.8549Z" fill="#029BC5"/>
<path d="M17.0807 43.2864C16.8877 43.2255 16.6579 43.2571 16.4639 43.3711L14.0285 44.8023C13.6966 44.9971 13.5644 45.3718 13.733 45.6392C13.7652 45.69 13.8069 45.7347 13.8569 45.7716L20.6804 50.814L27.8546 46.6792L17.0807 43.2864Z" fill="#029BC5"/>
<path d="M22.9675 51.7229L19.2949 56.4688C19.241 56.5371 19.2537 56.6227 19.3232 56.66C19.3732 56.6869 19.4416 56.682 19.4972 56.6477L21.7731 55.3169C21.7908 55.3066 21.8068 55.2936 21.82 55.2788L27.1863 49.2585L22.9675 51.7229Z" fill="#029BC5"/>
<path d="M71.5035 25.3145C70.867 25.2202 70.2067 25.2001 69.538 25.2543C68.887 26.0942 68.4709 27.0377 68.3312 27.9907C68.321 28.1821 68.4883 28.3199 68.7049 28.2985C68.7722 28.2917 68.8392 28.2699 68.8994 28.2349L73.0937 25.7706C72.6033 25.5475 72.0679 25.394 71.5035 25.3145Z" fill="#029BC5"/>
<path d="M62.3631 29.8461L65.1015 28.2503L67.6522 32.2533L64.9138 33.849L62.3631 29.8461Z" fill="#D5D6DB"/>
<path d="M60.64 31.4292C60.31 31.6221 60.1781 31.9928 60.3457 32.2572L60.6171 32.6855C60.7956 32.9432 61.2032 32.9885 61.5275 32.7867C61.8362 32.5945 61.9604 32.2452 61.8117 31.9872L61.5403 31.5589C61.3729 31.2948 60.97 31.2366 60.64 31.4292V31.4292Z" fill="#3A556A"/>
<path d="M58.1787 32.8396C57.8487 33.0325 57.7168 33.4032 57.8844 33.6676L58.1558 34.0959C58.3343 34.3536 58.7419 34.3989 59.0662 34.1971C59.3749 34.0049 59.4992 33.6556 59.3504 33.3976L59.079 32.9693C58.9115 32.7053 58.5086 32.6471 58.1787 32.8396V32.8396Z" fill="#3A556A"/>
<path d="M55.7166 34.2504C55.387 34.4436 55.2556 34.8139 55.423 35.078L55.6944 35.5063C55.8729 35.7639 56.2805 35.8092 56.6048 35.6074C56.9135 35.4153 57.0378 35.066 56.889 34.808L56.6176 34.3797C56.4501 34.1154 56.0468 34.0575 55.7166 34.2504V34.2504Z" fill="#3A556A"/>
<path d="M53.2554 35.6608C52.9258 35.854 52.7944 36.2243 52.9618 36.4884L53.2332 36.9167C53.4117 37.1744 53.8193 37.2197 54.1436 37.0179C54.4523 36.8257 54.5765 36.4764 54.4278 36.2184L54.1564 35.7901C53.9887 35.5258 53.5854 35.468 53.2554 35.6608V35.6608Z" fill="#3A556A"/>
<path d="M50.7944 37.0712C50.4646 37.2644 50.3331 37.6349 50.5006 37.8991L50.7721 38.3276C50.9396 38.5918 51.3427 38.6496 51.6726 38.4568C52.0025 38.264 52.1342 37.8936 51.9668 37.6295L51.6952 37.201C51.5282 36.9366 51.1252 36.8783 50.7951 37.0708C50.7948 37.071 50.7947 37.071 50.7944 37.0712Z" fill="#3A556A"/>
<path d="M48.3331 38.4816C48.0033 38.6748 47.8718 39.0453 48.0393 39.3095L48.3109 39.738C48.4783 40.0022 48.8814 40.06 49.2113 39.8672C49.5412 39.6745 49.6729 39.304 49.5055 39.0399L49.2339 38.6114C49.0669 38.347 48.6639 38.2887 48.3338 38.4812C48.3335 38.4814 48.3333 38.4815 48.3331 38.4816Z" fill="#3A556A"/>
<path d="M45.8717 39.8919C45.5419 40.0851 45.4104 40.4555 45.5779 40.7198L45.8495 41.1483C46.0173 41.4122 46.4206 41.4695 46.7502 41.2764C47.0791 41.0837 47.2106 40.7141 47.0439 40.4502L46.7724 40.0217C46.605 39.7574 46.2019 39.6992 45.8717 39.8919Z" fill="#3A556A"/>
<path d="M43.4103 41.3023C43.0805 41.4955 42.949 41.866 43.1165 42.1302L43.3881 42.5587C43.5559 42.8226 43.9592 42.8799 44.2888 42.6868C44.6177 42.4941 44.7492 42.1245 44.5825 41.8606L44.311 41.4321C44.1436 41.1678 43.7405 41.1096 43.4103 41.3023Z" fill="#3A556A"/>
<path d="M40.9491 42.7127C40.6193 42.9059 40.4878 43.2763 40.6553 43.5406L40.9268 43.9691C41.0947 44.233 41.498 44.2903 41.8275 44.0972C42.1565 43.9045 42.2879 43.5349 42.1213 43.271L41.8497 42.8425C41.6823 42.5783 41.2791 42.5201 40.9491 42.7127Z" fill="#3A556A"/>
<path d="M38.487 44.1233C38.1571 44.3161 38.0254 44.6866 38.1928 44.9507L38.1932 44.9513L38.4648 45.3798C38.6326 45.6437 39.0359 45.7009 39.3655 45.5079C39.6945 45.3152 39.8259 44.9455 39.6592 44.6817L39.3877 44.2532C39.2203 43.9888 38.8172 43.9307 38.487 44.1233Z" fill="#3A556A"/>
<path d="M36.0264 45.5334C35.6965 45.7262 35.5648 46.0966 35.7322 46.3607L35.7326 46.3613L36.0042 46.7898C36.172 47.0537 36.5753 47.1109 36.9049 46.9179C37.2339 46.7252 37.3653 46.3555 37.1987 46.0917L36.9271 45.6632C36.7596 45.399 36.3564 45.3408 36.0264 45.5334Z" fill="#3A556A"/>
</svg>
